<svg width="770" height="770" viewBox="0 0 770 770" fill="none" xmlns="http://www.w3.org/2000/svg">
<rect width="770" height="770" fill="black"/>
<path d="M420.346 60C422.101 60 423.817 60.1633 425.482 60.4727H422.746L430.973 68.4707L439.77 77.0225L447.675 84.707V82.082C448.079 83.9734 448.293 85.9353 448.293 87.9473V682.014C448.293 684.031 448.077 685.999 447.671 687.896V685.253L439.766 692.938L430.969 701.489L422.742 709.487H425.487C423.821 709.797 422.102 709.961 420.346 709.961H353.082C351.328 709.961 349.611 709.798 347.946 709.488H350.682L342.455 701.49L333.658 692.938L325.753 685.254V687.875C325.349 685.985 325.135 684.024 325.135 682.014V87.9473C325.135 85.9318 325.351 83.9667 325.756 82.0723V84.708L333.661 77.0234L342.458 68.4717L350.685 60.4736H347.941C349.608 60.1637 351.327 60 353.083 60L420.346 60Z" fill="white"/>
<path d="M60 349.642C60 347.887 60.1633 346.171 60.4727 344.505V347.242L68.4707 339.016L77.0234 330.219L84.709 322.315H82.0732C83.9673 321.91 85.9322 321.695 87.9473 321.695L682.053 321.695C684.066 321.695 686.029 321.91 687.921 322.314H685.294L692.979 330.219L701.532 339.016L709.53 347.241V344.521C709.838 346.181 710 347.893 710 349.642V416.898C710 418.651 709.837 420.365 709.528 422.029V419.298L701.53 427.524L692.978 436.321L685.292 444.225H687.926C686.032 444.63 684.067 444.845 682.053 444.845L87.9473 444.845C85.9322 444.845 83.9673 444.63 82.0732 444.225H84.708L77.0225 436.32L68.4697 427.523L60.4717 419.298V422.029C60.163 420.365 60 418.651 60 416.898L60 349.642Z" fill="white"/>
<path d="M182.271 127.653C183.511 126.413 184.84 125.315 186.235 124.357L183.643 126.949L195.454 126.542L207.982 126.11L218.694 125.741L216.375 123.422C218.307 124.579 220.131 125.988 221.795 127.653L641.89 547.722C643.555 549.387 644.964 551.21 646.121 553.141L643.802 550.823L643.432 561.535L643 574.062L642.593 585.871L645.194 583.27C644.234 584.669 643.134 586.001 641.89 587.244L590.7 638.431C589.456 639.676 588.122 640.777 586.721 641.738L589.323 639.136L577.512 639.543L564.985 639.975L554.272 640.344L556.581 642.653C554.655 641.498 552.836 640.092 551.175 638.431L131.081 218.362C129.419 216.7 128.012 214.881 126.856 212.952L129.165 215.261L129.535 204.55L129.967 192.022L130.374 180.213L127.787 182.8C128.744 181.406 129.841 180.079 131.081 178.84L182.271 127.653Z" fill="white"/>
<path d="M641.893 178.839C643.136 180.082 644.236 181.414 645.196 182.813L642.595 180.212L643.002 192.023L643.434 204.549L643.803 215.261L646.126 212.938C644.969 214.872 643.558 216.696 641.892 218.362L221.798 638.431C220.132 640.098 218.306 641.508 216.371 642.666L218.695 640.342L207.982 639.973L195.454 639.541L183.644 639.133L186.24 641.729C184.844 640.77 183.515 639.672 182.274 638.431L131.084 587.245C129.841 586.002 128.741 584.669 127.781 583.27L130.378 585.868L129.971 574.057L129.539 561.531L129.17 550.819L126.862 553.127C128.017 551.201 129.424 549.383 131.084 547.722L551.178 127.654C552.84 125.992 554.659 124.584 556.588 123.428L554.279 125.737L564.992 126.106L577.52 126.538L589.329 126.946L586.743 124.359C588.137 125.317 589.465 126.414 590.704 127.653L641.893 178.839Z" fill="white"/>
<rect x="340.549" y="275.526" width="88.9528" height="241.184" fill="#7342D4"/>
<rect x="306.336" y="309.737" width="157.378" height="34.2105" fill="#7342D4"/>
<rect x="272.123" y="340.526" width="225.803" height="106.053" fill="#7342D4"/>
<rect x="306.336" y="446.579" width="157.378" height="35.9211" fill="#7342D4"/>
<rect x="369.629" y="516.711" width="30.7913" height="193.29" fill="black"/>
</svg>
