<svg width="356" height="90" viewBox="0 0 356 90" fill="none" xmlns="http://www.w3.org/2000/svg">
<path d="M49.7051 0.059082C49.9008 0.059082 50.0936 0.0733285 50.2822 0.0991211L51.4902 1.27393L52.7061 2.45654L53.8682 3.58545C53.9056 3.81141 53.9267 4.04321 53.9268 4.27979V85.7192C53.9268 85.9553 53.9054 86.1871 53.8682 86.4126L52.7061 87.5435L51.4893 88.7271L50.2812 89.8999C50.0928 89.9256 49.9005 89.9409 49.7051 89.9409H41.1172C40.9213 89.9409 40.7288 89.9257 40.54 89.8999L39.333 88.7261L38.1172 87.5435L36.9541 86.4136C36.9167 86.1878 36.8965 85.9556 36.8965 85.7192V4.27979C36.8965 4.04357 36.9168 3.81207 36.9541 3.58643L38.1172 2.45654L39.334 1.27295L40.541 0.0991211C40.7294 0.073387 40.9217 0.0590919 41.1172 0.059082L49.7051 0.059082Z" fill="white"/>
<path d="M0.232422 40.4702C0.232422 40.2745 0.246691 40.0817 0.272461 39.8931L1.44727 38.6851L2.62988 37.4692L3.75879 36.3071C3.98477 36.2697 4.21654 36.2486 4.45312 36.2485L85.8926 36.2485C86.129 36.2485 86.3611 36.2698 86.5869 36.3071L87.7168 37.4683L88.9004 38.6851L90.0732 39.8931C90.099 40.0817 90.1143 40.2745 90.1143 40.4702V49.0581C90.1142 49.254 90.0991 49.4465 90.0732 49.6353L88.8994 50.8423L87.7168 52.0581L86.5869 53.2212C86.3611 53.2585 86.129 53.2788 85.8926 53.2788L4.45312 53.2788C4.21692 53.2788 3.9854 53.2585 3.75977 53.2212L2.62988 52.0581L1.44629 50.8413L0.272461 49.6343C0.246715 49.4459 0.232444 49.2536 0.232422 49.0581L0.232422 40.4702Z" fill="white"/>
<path d="M16.8879 9.66632C16.989 9.56518 17.0944 9.47055 17.2028 9.38182L18.965 9.32106L20.6976 9.26098L22.3079 9.20574C22.5003 9.34204 22.6852 9.49468 22.8575 9.66701L80.4439 67.2534C80.6161 67.4256 80.7683 67.6102 80.9045 67.8024L80.85 69.4134L80.7906 71.1452L80.7291 72.9068C80.6402 73.0155 80.5453 73.121 80.4439 73.2224L73.8694 79.7969C73.768 79.8983 73.6625 79.9932 73.5538 80.0821L71.7929 80.1429L70.0604 80.203L68.4466 80.2589C68.2548 80.1229 68.0715 79.9694 67.8997 79.7976L10.3133 22.2113C10.1413 22.0393 9.98744 21.8556 9.85134 21.6637L9.90796 20.0506L9.96735 18.3187L10.0274 16.5572C10.1165 16.4482 10.2117 16.3425 10.3133 16.2409L16.8879 9.66632Z" fill="white"/>
<path d="M80.4438 16.2412C80.5452 16.3425 80.6408 16.4475 80.7297 16.5561L80.7905 18.3183L80.8506 20.0509L80.9058 21.6612C80.7695 21.8536 80.6169 22.0385 80.4445 22.2109L22.8581 79.7972C22.6863 79.9691 22.5023 80.1218 22.3105 80.2578L20.6961 80.2026L18.9642 80.1432L17.204 80.0817C17.0954 79.9928 16.9891 79.8986 16.8878 79.7972L10.3139 73.2234C10.2119 73.1214 10.1167 73.0144 10.0273 72.905L9.96655 71.1455L9.90647 69.413L9.85054 67.8034C9.98709 67.6104 10.1411 67.4258 10.3139 67.253L67.9003 9.66662C68.0723 9.49456 68.2558 9.34079 68.4479 9.20465L70.061 9.26127L71.7928 9.32066L73.5544 9.38074C73.6632 9.46974 73.7684 9.5658 73.8699 9.66731L80.4438 16.2412Z" fill="white"/>
<rect x="39.498" y="30.104" width="12.1953" height="33.0659" fill="#7342D4"/>
<rect x="34.8066" y="34.7944" width="21.5762" height="4.6902" fill="#7342D4"/>
<rect x="30.1152" y="39.0142" width="30.9572" height="14.5396" fill="#7342D4"/>
<rect x="34.8066" y="53.5566" width="21.5762" height="4.92471" fill="#7342D4"/>
<rect x="43.4844" y="63.1714" width="4.22144" height="26.4997" fill="black"/>
<path d="M194.711 34.0317C197.904 34.0317 200.795 34.7391 203.382 36.1538C205.969 37.5687 208.011 39.5897 209.507 42.2173C211.002 44.8448 211.75 47.8569 211.75 51.2524C211.75 54.6478 210.982 57.6592 209.446 60.2866C207.91 62.9142 205.808 64.9554 203.14 66.4106C200.512 67.8255 197.602 68.5337 194.408 68.5337C191.255 68.5337 188.405 67.8255 185.858 66.4106C183.312 64.9554 181.311 62.9342 179.855 60.3472C178.4 57.7198 177.673 54.6882 177.673 51.2524C177.673 47.8569 178.42 44.8448 179.916 42.2173C181.412 39.5898 183.453 37.5686 186.04 36.1538C188.627 34.739 191.518 34.0318 194.711 34.0317ZM230.165 34.0317C233.965 34.0318 237.017 35.0016 239.321 36.9419C241.666 38.8418 242.918 41.4495 243.08 44.7642H236.168C236.047 43.2685 235.44 42.0754 234.349 41.186C233.257 40.297 231.782 39.8521 229.923 39.8521C228.104 39.8521 226.708 40.1961 225.738 40.8833C224.768 41.5705 224.283 42.48 224.283 43.6118C224.283 44.5011 224.607 45.2486 225.254 45.855C225.901 46.4613 226.688 46.9472 227.618 47.311C228.548 47.6344 229.922 48.059 231.741 48.5845C234.167 49.2313 236.147 49.8982 237.684 50.5854C239.26 51.2322 240.614 52.2021 241.746 53.4956C242.878 54.7892 243.464 56.5074 243.505 58.6499C243.505 60.5495 242.979 62.2472 241.929 63.7427C240.878 65.2384 239.382 66.4113 237.441 67.2603C235.542 68.1091 233.298 68.5337 230.711 68.5337C228.083 68.5337 225.718 68.0679 223.616 67.1382C221.555 66.1681 219.918 64.875 218.705 63.2583C217.492 61.6009 216.845 59.7609 216.765 57.7397H223.92C224.041 59.1546 224.708 60.3477 225.921 61.3179C227.174 62.2474 228.731 62.7124 230.59 62.7124C232.53 62.7123 234.025 62.3481 235.076 61.6206C236.168 60.8526 236.714 59.8827 236.714 58.7104C236.714 57.4574 236.107 56.5277 234.895 55.9214C233.722 55.3151 231.843 54.648 229.256 53.9204C226.75 53.2332 224.707 52.5662 223.131 51.9194C221.554 51.2726 220.18 50.2817 219.008 48.9478C217.876 47.6138 217.311 45.8552 217.311 43.6724C217.311 41.8938 217.836 40.277 218.887 38.8218C219.938 37.3261 221.434 36.1541 223.374 35.3052C225.355 34.4563 227.618 34.0317 230.165 34.0317ZM299.344 34.0317C302.537 34.0317 305.428 34.739 308.015 36.1538C310.602 37.5687 312.644 39.5897 314.14 42.2173C315.635 44.8448 316.383 47.8569 316.383 51.2524C316.383 54.6479 315.614 57.6592 314.078 60.2866C312.542 62.9141 310.44 64.9554 307.772 66.4106C305.145 67.8255 302.234 68.5337 299.041 68.5337C295.888 68.5337 293.038 67.8255 290.491 66.4106C287.945 64.9554 285.944 62.9343 284.488 60.3472C283.033 57.7198 282.306 54.6882 282.306 51.2524C282.306 47.8568 283.053 44.8448 284.549 42.2173C286.044 39.5898 288.086 37.5686 290.673 36.1538C293.26 34.739 296.15 34.0318 299.344 34.0317ZM355.232 67.9878H348.259V62.9546C347.127 64.5715 345.55 65.9055 343.529 66.9565C341.549 68.0075 339.265 68.5336 336.678 68.5337C333.767 68.5337 331.099 67.8053 328.674 66.3501C326.289 64.8544 324.388 62.7931 322.974 60.1655C321.599 57.4975 320.912 54.4856 320.912 51.1304C320.912 47.7753 321.599 44.8043 322.974 42.2173C324.388 39.6301 326.289 37.6292 328.674 36.2144C331.099 34.7592 333.787 34.0317 336.738 34.0317C338.921 34.0318 341.063 34.5168 343.165 35.4868C345.307 36.4165 347.006 37.6692 348.259 39.2456V23.1167H355.232V67.9878ZM129.982 49.1899L142.109 34.5767H151.69L136.288 51.313L151.69 67.9878H142.353L129.982 53.6167V67.9878H123.07V23.1167H129.982V49.1899ZM173.562 41.186H171.804C169.095 41.186 167.034 41.8741 165.619 43.2485C164.245 44.6229 163.558 47.0074 163.558 50.4028V67.9878H156.645V34.5767H163.558V39.4282C164.568 37.7304 165.902 36.4166 167.56 35.4868C169.257 34.5167 171.258 34.0317 173.562 34.0317V41.186ZM257.887 49.1899L270.014 34.5767H279.594L264.192 51.313L279.594 67.9878H270.256L257.887 53.6167V67.9878H250.974V34.4438H257.887V49.1899ZM194.59 40.0347C192.811 40.0347 191.154 40.4592 189.618 41.3081C188.123 42.157 186.929 43.4297 186.04 45.1274C185.151 46.7848 184.706 48.827 184.706 51.2524C184.706 54.8498 185.616 57.6389 187.435 59.6196C189.294 61.56 191.619 62.5308 194.408 62.5308C196.187 62.5308 197.844 62.106 199.38 61.2573C200.956 60.4084 202.23 59.1347 203.2 57.437C204.17 55.7393 204.655 53.6777 204.655 51.2524C204.655 48.827 204.19 46.7848 203.261 45.1274C202.331 43.43 201.098 42.1569 199.562 41.3081C198.026 40.4592 196.369 40.0347 194.59 40.0347ZM299.223 40.0347C297.444 40.0347 295.787 40.4593 294.251 41.3081C292.755 42.157 291.562 43.4297 290.673 45.1274C289.784 46.7848 289.339 48.827 289.339 51.2524C289.339 54.8498 290.249 57.6389 292.067 59.6196C293.927 61.56 296.252 62.5308 299.041 62.5308C300.819 62.5307 302.477 62.1061 304.013 61.2573C305.589 60.4084 306.863 59.1348 307.833 57.437C308.803 55.7393 309.288 53.6777 309.288 51.2524C309.288 48.827 308.823 46.7848 307.894 45.1274C306.964 43.43 305.731 42.157 304.195 41.3081C302.659 40.4592 301.001 40.0347 299.223 40.0347ZM338.133 40.0347C336.354 40.0347 334.696 40.4793 333.16 41.3687C331.624 42.2175 330.371 43.4905 329.401 45.188C328.472 46.8453 328.007 48.8264 328.007 51.1304C328.007 53.4345 328.472 55.4566 329.401 57.1948C330.372 58.9328 331.624 60.2671 333.16 61.1968C334.737 62.0861 336.395 62.5308 338.133 62.5308C339.911 62.5307 341.569 62.0859 343.104 61.1968C344.641 60.3075 345.874 59.0137 346.804 57.3159C347.774 55.5778 348.259 53.5564 348.259 51.2524C348.259 48.9485 347.774 46.9472 346.804 45.2495C345.874 43.5517 344.641 42.258 343.104 41.3687C341.568 40.4794 339.911 40.0347 338.133 40.0347Z" fill="url(#paint0_linear_802_1478)"/>
<defs>
<linearGradient id="paint0_linear_802_1478" x1="239.292" y1="24.4157" x2="239.292" y2="101.879" gradientUnits="userSpaceOnUse">
<stop offset="0.541993" stop-color="white"/>
<stop offset="1" stop-color="#7A4DE6"/>
</linearGradient>
</defs>
</svg>
